<?xml version="1.0" encoding="UTF-8" standalone="no"?>
<!-- Created with Inkscape (http://www.inkscape.org/) -->

<svg
   width="210mm"
   height="297mm"
   viewBox="0 0 210 297"
   version="1.1"
   id="svg5"
   inkscape:version="1.2.2 (b0a8486541, 2022-12-01)"
   sodipodi:docname="drawing.svg"
   xmlns:inkscape="http://www.inkscape.org/namespaces/inkscape"
   xmlns:sodipodi="http://sodipodi.sourceforge.net/DTD/sodipodi-0.dtd"
   xmlns="http://www.w3.org/2000/svg"
   xmlns:svg="http://www.w3.org/2000/svg">
  <sodipodi:namedview
     id="namedview7"
     pagecolor="#ffffff"
     bordercolor="#999999"
     borderopacity="1"
     inkscape:showpageshadow="0"
     inkscape:pageopacity="0"
     inkscape:pagecheckerboard="0"
     inkscape:deskcolor="#d1d1d1"
     inkscape:document-units="mm"
     showgrid="false"
     inkscape:zoom="1.5518659"
     inkscape:cx="461.05788"
     inkscape:cy="326.3813"
     inkscape:window-width="1864"
     inkscape:window-height="1052"
     inkscape:window-x="56"
     inkscape:window-y="0"
     inkscape:window-maximized="1"
     inkscape:current-layer="layer1" />
  <defs
     id="defs2" />
  <g
     inkscape:label="Layer 1"
     inkscape:groupmode="layer"
     id="layer1">
    <path
       id="path723"
       style="fill:#483e37;stroke-width:6.20852;stroke-miterlimit:3.6;paint-order:fill markers stroke"
       d="M 52.899613 68.36792 C 49.473548 68.36792 46.715495 71.125973 46.715495 74.552039 L 46.715495 90.235319 C 47.256141 90.366664 47.788946 90.4987 48.349504 90.627543 C 49.244087 90.833161 50.163783 91.034955 51.107475 91.231641 C 52.051167 91.428326 53.018794 91.619612 54.009623 91.804215 C 55.000452 91.988819 56.014271 92.166594 57.050264 92.335966 C 58.086258 92.505338 59.144528 92.6666 60.223714 92.81759 C 61.302901 92.968581 62.403364 93.109293 63.523771 93.238753 C 64.644178 93.368214 65.784578 93.486405 66.944234 93.591187 C 67.524062 93.643577 68.108345 93.692317 68.697616 93.737948 C 69.286886 93.783578 69.880953 93.826079 70.479419 93.864555 C 71.077885 93.903031 71.681195 93.937496 72.288611 93.968424 C 72.896027 93.999353 73.507522 94.026569 74.123641 94.049556 C 74.73976 94.072544 75.360451 94.091748 75.985026 94.106401 C 76.609601 94.121053 77.237914 94.130966 77.870699 94.13689 C 78.503484 94.142813 79.140428 94.14474 79.781177 94.141541 C 80.421925 94.138342 81.06696 94.130484 81.715426 94.117769 C 82.363891 94.105054 83.015959 94.087167 83.671895 94.064543 C 84.327831 94.041918 84.987426 94.014272 85.650586 93.981344 C 86.313746 93.948416 86.980327 93.910247 87.650464 93.866622 C 88.320601 93.822997 88.994144 93.77406 89.671012 93.719344 C 90.347881 93.664628 91.028362 93.60416 91.711715 93.53796 C 92.395067 93.47176 93.08143 93.399514 93.771021 93.321436 C 94.460611 93.243357 95.153348 93.159604 95.84893 93.069255 C 96.544512 92.978905 97.243082 92.882365 97.944409 92.77935 C 98.645736 92.676335 99.3496 92.566762 100.05642 92.450688 C 100.76325 92.334614 101.4729 92.211761 102.18498 92.082235 C 102.89705 91.952708 103.61195 91.81633 104.32903 91.672957 C 105.04612 91.529584 105.7652 91.379435 106.48704 91.221822 C 107.20888 91.064209 107.93316 90.899009 108.65952 90.726762 C 109.38587 90.554515 110.11429 90.375051 110.84491 90.187777 C 111.57553 90.000503 112.30859 89.805495 113.04323 89.602799 C 113.77787 89.400104 114.5145 89.189823 115.25291 88.971313 C 115.99133 88.752804 116.72362 88.541614 117.44968 88.33776 C 118.17574 88.133906 118.8955 87.937171 119.60924 87.747616 C 120.32298 87.55806 121.03066 87.375459 121.7321 87.199845 C 122.43355 87.024232 123.12859 86.855961 123.81777 86.693933 C 124.50694 86.531905 125.18981 86.376611 125.86674 86.227812 C 126.54366 86.079012 127.21483 85.936376 127.87953 85.800448 C 128.54424 85.664519 129.20261 85.535255 129.85512 85.411841 C 130.50763 85.288427 131.1542 85.171181 131.79454 85.059924 C 132.43488 84.948668 133.06907 84.84312 133.69727 84.743665 C 134.32546 84.644209 134.94774 84.550556 135.56382 84.462545 C 136.1799 84.374533 136.78969 84.292456 137.39368 84.215531 C 137.99767 84.138607 138.59596 84.066752 139.18789 84.000557 C 139.77981 83.934363 140.36552 83.873444 140.9454 83.817623 C 141.52529 83.761802 142.09939 83.711499 142.66726 83.665694 C 143.23513 83.619889 143.79655 83.57885 144.35243 83.542704 C 144.90831 83.506559 145.45854 83.474979 146.00246 83.448136 C 146.54638 83.421294 147.08433 83.398854 147.61631 83.380957 C 148.1483 83.36306 148.67444 83.349958 149.19451 83.340649 C 149.71458 83.331341 150.22835 83.326223 150.73654 83.325146 C 151.24472 83.32407 151.74709 83.326616 152.24342 83.333415 C 152.73975 83.340214 153.23016 83.351137 153.71465 83.365454 C 154.19914 83.379771 154.67753 83.397719 155.15022 83.419198 C 156.09559 83.462155 157.01765 83.519235 157.91594 83.588696 C 158.81423 83.658158 159.68917 83.740015 160.54059 83.833126 C 161.39201 83.926237 162.21992 84.030313 163.02467 84.144218 C 163.82943 84.258123 164.61094 84.38186 165.36923 84.513704 C 166.12753 84.645549 166.86274 84.785871 167.57478 84.9328 C 168.28682 85.079729 168.97533 85.233045 169.64132 85.392204 C 170.30732 85.551362 170.95077 85.716147 171.57092 85.88468 C 172.19107 86.053213 172.78803 86.225876 173.36254 86.400928 C 173.93706 86.57598 174.48917 86.753445 175.01826 86.932161 C 175.54734 87.110878 176.05368 87.290587 176.53754 87.470113 C 176.63003 87.504426 176.71129 87.538152 176.80213 87.572432 L 176.80213 74.552039 C 176.80213 71.125973 174.04356 68.36792 170.61749 68.36792 L 52.899613 68.36792 z " />
    <text
       xml:space="preserve"
       style="font-size:26.4583px;font-family:'Open Sans Condensed';-inkscape-font-specification:'Open Sans Condensed, ';fill:#6c5d53;stroke-width:7.35542;stroke-miterlimit:3.6;paint-order:fill markers stroke"
       x="58.13834"
       y="95.987946"
       id="text346"><tspan
         sodipodi:role="line"
         id="tspan344"
         style="font-size:26.4583px;fill:#6c5d53;stroke-width:7.35542"
         x="58.13834"
         y="95.987946">Coder</tspan></text>
    <path
       id="rect721"
       style="fill:#917c6f;stroke-width:6.20852;stroke-miterlimit:3.6;paint-order:fill markers stroke"
       d="M 176.80213 87.572432 C 176.71129 87.538152 176.63003 87.504426 176.53754 87.470113 C 176.05368 87.290587 175.54734 87.110878 175.01826 86.932161 C 174.48917 86.753445 173.93706 86.57598 173.36254 86.400928 C 172.78803 86.225876 172.19107 86.053213 171.57092 85.88468 C 170.95077 85.716147 170.30732 85.551362 169.64132 85.392204 C 168.97533 85.233045 168.28682 85.079729 167.57478 84.9328 C 166.86274 84.785871 166.12753 84.645549 165.36923 84.513704 C 164.61094 84.38186 163.82943 84.258123 163.02467 84.144218 C 162.21992 84.030313 161.39201 83.926237 160.54059 83.833126 C 159.68917 83.740015 158.81423 83.658158 157.91594 83.588696 C 157.01765 83.519235 156.09559 83.462155 155.15022 83.419198 C 154.67753 83.397719 154.19914 83.379771 153.71465 83.365454 C 153.23016 83.351137 152.73975 83.340214 152.24342 83.333415 C 151.74709 83.326616 151.24472 83.32407 150.73654 83.325146 C 150.22835 83.326223 149.71458 83.331341 149.19451 83.340649 C 148.67444 83.349958 148.1483 83.36306 147.61631 83.380957 C 147.08433 83.398854 146.54638 83.421294 146.00246 83.448136 C 145.45854 83.474979 144.90831 83.506559 144.35243 83.542704 C 143.79655 83.57885 143.23513 83.619889 142.66726 83.665694 C 142.09939 83.711499 141.52529 83.761802 140.9454 83.817623 C 140.36552 83.873444 139.77981 83.934363 139.18789 84.000557 C 138.59596 84.066752 137.99767 84.138607 137.39368 84.215531 C 136.78969 84.292456 136.1799 84.374533 135.56382 84.462545 C 134.94774 84.550556 134.32546 84.644209 133.69727 84.743665 C 133.06907 84.84312 132.43488 84.948668 131.79454 85.059924 C 131.1542 85.171181 130.50763 85.288427 129.85512 85.411841 C 129.20261 85.535255 128.54424 85.664519 127.87953 85.800448 C 127.21483 85.936376 126.54366 86.079012 125.86674 86.227812 C 125.18981 86.376611 124.50694 86.531905 123.81777 86.693933 C 123.12859 86.855961 122.43355 87.024232 121.7321 87.199845 C 121.03066 87.375459 120.32298 87.55806 119.60924 87.747616 C 118.8955 87.937171 118.17574 88.133906 117.44968 88.33776 C 116.72362 88.541614 115.99133 88.752804 115.25291 88.971313 C 114.5145 89.189823 113.77787 89.400104 113.04323 89.602799 C 112.30859 89.805495 111.57553 90.000503 110.84491 90.187777 C 110.11429 90.375051 109.38587 90.554515 108.65952 90.726762 C 107.93316 90.899009 107.20888 91.064209 106.48704 91.221822 C 105.7652 91.379435 105.04612 91.529584 104.32903 91.672957 C 103.61195 91.81633 102.89705 91.952708 102.18498 92.082235 C 101.4729 92.211761 100.76325 92.334614 100.05642 92.450688 C 99.3496 92.566762 98.645736 92.676335 97.944409 92.77935 C 97.243082 92.882365 96.544512 92.978905 95.84893 93.069255 C 95.153348 93.159604 94.460611 93.243357 93.771021 93.321436 C 93.08143 93.399514 92.395067 93.47176 91.711715 93.53796 C 91.028362 93.60416 90.347881 93.664628 89.671012 93.719344 C 88.994144 93.77406 88.320601 93.822997 87.650464 93.866622 C 86.980327 93.910247 86.313746 93.948416 85.650586 93.981344 C 84.987426 94.014272 84.327831 94.041918 83.671895 94.064543 C 83.015959 94.087167 82.363891 94.105054 81.715426 94.117769 C 81.06696 94.130484 80.421925 94.138342 79.781177 94.141541 C 79.140428 94.14474 78.503484 94.142813 77.870699 94.13689 C 77.237914 94.130966 76.609601 94.121053 75.985026 94.106401 C 75.360451 94.091748 74.73976 94.072544 74.123641 94.049556 C 73.507522 94.026569 72.896027 93.999353 72.288611 93.968424 C 71.681195 93.937496 71.077885 93.903031 70.479419 93.864555 C 69.880953 93.826079 69.286886 93.783578 68.697616 93.737948 C 68.108345 93.692317 67.524062 93.643577 66.944234 93.591187 C 65.784578 93.486405 64.644178 93.368214 63.523771 93.238753 C 62.403364 93.109293 61.302901 92.968581 60.223714 92.81759 C 59.144528 92.6666 58.086258 92.505338 57.050264 92.335966 C 56.014271 92.166594 55.000452 91.988819 54.009623 91.804215 C 53.018794 91.619612 52.051167 91.428326 51.107475 91.231641 C 50.163783 91.034955 49.244087 90.833161 48.349504 90.627543 C 47.788946 90.4987 47.256141 90.366664 46.715495 90.235319 L 46.715495 100.2037 C 46.715495 103.62977 49.473548 106.38782 52.899613 106.38782 L 170.61749 106.38782 C 174.04356 106.38782 176.80213 103.62977 176.80213 100.2037 L 176.80213 87.572432 z " />
    <text
       xml:space="preserve"
       style="font-size:26.4583px;font-family:'Open Sans Condensed';-inkscape-font-specification:'Open Sans Condensed, ';fill:#ac9d93;stroke-width:7.35542;stroke-miterlimit:3.6;paint-order:fill markers stroke"
       x="117.55917"
       y="96.362167"
       id="text346-3"><tspan
         sodipodi:role="line"
         id="tspan344-6"
         style="font-size:26.4583px;fill:#ac9d93;stroke-width:7.35542"
         x="117.55917"
         y="96.362167">XYZ7</tspan></text>
  </g>
</svg>
